<svg width="32" height="32" viewBox="0 0 32 32" fill="none" xmlns="http://www.w3.org/2000/svg">
<rect width="32" height="32" rx="8" fill="#0000B2"/>
<path d="M11 26V21H6V11H11V6H21V11H26V21H21V26H11ZM8 15H13C13.1667 15 13.325 15.0417 13.475 15.125C13.625 15.2083 13.7417 15.3167 13.825 15.45L14.7 16.75L16.05 12.7C16.1167 12.5 16.2375 12.3333 16.4125 12.2C16.5875 12.0667 16.7833 12 17 12C17.1667 12 17.325 12.0417 17.475 12.125C17.625 12.2083 17.7417 12.3167 17.825 12.45L19.525 15H24V13H19V8H13V13H8V15ZM13 24H19V19H24V17H19C18.8333 17 18.675 16.9583 18.525 16.875C18.375 16.7917 18.25 16.6833 18.15 16.55L17.3 15.25L15.95 19.3C15.8833 19.5 15.7583 19.6667 15.575 19.8C15.3917 19.9333 15.1917 20 14.975 20C14.8083 20 14.65 19.9583 14.5 19.875C14.35 19.7917 14.2333 19.6833 14.15 19.55L12.45 17H8V19H13V24Z" fill="white"/>
</svg>
